<svg xmlns="http://www.w3.org/2000/svg" viewBox="0 0 512 512" width="512" height="512">
  <!-- White squircle background matching uploaded image -->
  <rect width="512" height="512" rx="100" fill="#ffffff" />
  
  <!-- Absher Green Logo elements -->
  <g fill="#0B5D36">
    <!-- 3 upper dots for the letter sheen (ش) -->
    <circle cx="196" cy="140" r="17" />
    <circle cx="248" cy="140" r="17" />
    <circle cx="300" cy="140" r="17" />

    <!-- Bar 1 (leftmost, letter raa ر extending downward) -->
    <rect x="126" y="174" width="36" height="268" rx="18" />

    <!-- Bar 2 -->
    <rect x="178" y="174" width="36" height="212" rx="18" />

    <!-- Bar 3 -->
    <rect x="230" y="174" width="36" height="212" rx="18" />

    <!-- Bar 4 (under letter baa ب) -->
    <rect x="282" y="174" width="36" height="212" rx="18" />

    <!-- Bar 5 (rightmost, tall Alif أ with angled calligraphic top) -->
    <path d="M 334,124 C 334,106 350,92 368,90 L 370,90 L 370,368 C 370,378 362,386 352,386 C 342,386 334,378 334,368 Z" />

    <!-- Bottom single dot for the letter baa (ب) -->
    <circle cx="300" cy="424" r="17" />
  </g>
</svg>